<mxfile host="app.diagrams.net" modified="2023-02-25T15:01:35.903Z" agent="5.0 (Windows NT 10.0; Win64; x64) AppleWebKit/537.36 (KHTML, like Gecko) Chrome/110.0.0.0 Safari/537.36" etag="UFZITpbRbGWD3TLXYJo7" version="20.8.23" type="github">
  <diagram name="Page-1" id="m9nncHNNtIdsp6crrrIu">
    <mxGraphModel dx="2284" dy="796" grid="1" gridSize="10" guides="1" tooltips="1" connect="1" arrows="1" fold="1" page="1" pageScale="1" pageWidth="850" pageHeight="1100" math="0" shadow="0">
      <root>
        <mxCell id="0" />
        <mxCell id="1" parent="0" />
        <mxCell id="JSYNmfH88HEd9jmJwd5Y-61" value="" style="rounded=0;whiteSpace=wrap;html=1;dashed=1;dashPattern=8 8;labelBackgroundColor=#0000FF;strokeWidth=2;fontSize=17;opacity=20;strokeColor=#FF0080;" vertex="1" parent="1">
          <mxGeometry y="1000" width="840" height="580" as="geometry" />
        </mxCell>
        <mxCell id="JSYNmfH88HEd9jmJwd5Y-58" value="" style="rounded=1;whiteSpace=wrap;html=1;labelBackgroundColor=#0000FF;fontSize=17;opacity=20;dashed=1;dashPattern=8 8;strokeWidth=3;strokeColor=#FF0080;" vertex="1" parent="1">
          <mxGeometry x="125" y="1035" width="535" height="195" as="geometry" />
        </mxCell>
        <mxCell id="JSYNmfH88HEd9jmJwd5Y-1" value="&lt;font style=&quot;font-size: 17px;&quot;&gt;PLATFORM SERVICE&lt;br style=&quot;&quot;&gt;&lt;/font&gt;" style="whiteSpace=wrap;html=1;aspect=fixed;" vertex="1" parent="1">
          <mxGeometry x="50" y="52.5" width="115" height="115" as="geometry" />
        </mxCell>
        <mxCell id="JSYNmfH88HEd9jmJwd5Y-3" value="" style="endArrow=classic;html=1;rounded=0;fontSize=17;" edge="1" parent="1" source="JSYNmfH88HEd9jmJwd5Y-1" target="JSYNmfH88HEd9jmJwd5Y-4">
          <mxGeometry width="50" height="50" relative="1" as="geometry">
            <mxPoint x="215" y="120" as="sourcePoint" />
            <mxPoint x="360" y="30" as="targetPoint" />
          </mxGeometry>
        </mxCell>
        <mxCell id="JSYNmfH88HEd9jmJwd5Y-4" value="Регистрация активов&lt;br&gt;" style="rounded=0;whiteSpace=wrap;html=1;fontSize=17;" vertex="1" parent="1">
          <mxGeometry x="300" width="120" height="60" as="geometry" />
        </mxCell>
        <mxCell id="JSYNmfH88HEd9jmJwd5Y-5" value="" style="endArrow=classic;html=1;rounded=0;fontSize=17;" edge="1" parent="1" source="JSYNmfH88HEd9jmJwd5Y-1" target="JSYNmfH88HEd9jmJwd5Y-6">
          <mxGeometry width="50" height="50" relative="1" as="geometry">
            <mxPoint x="225" y="110" as="sourcePoint" />
            <mxPoint x="350" y="100" as="targetPoint" />
          </mxGeometry>
        </mxCell>
        <mxCell id="JSYNmfH88HEd9jmJwd5Y-6" value="Отслеживание платоформ и систем" style="rounded=0;whiteSpace=wrap;html=1;fontSize=17;" vertex="1" parent="1">
          <mxGeometry x="340" y="80" width="120" height="60" as="geometry" />
        </mxCell>
        <mxCell id="JSYNmfH88HEd9jmJwd5Y-7" value="" style="endArrow=classic;html=1;rounded=0;fontSize=17;" edge="1" parent="1" source="JSYNmfH88HEd9jmJwd5Y-1" target="JSYNmfH88HEd9jmJwd5Y-8">
          <mxGeometry width="50" height="50" relative="1" as="geometry">
            <mxPoint x="215" y="123" as="sourcePoint" />
            <mxPoint x="400" y="180" as="targetPoint" />
            <Array as="points">
              <mxPoint x="280" y="180" />
              <mxPoint x="320" y="160" />
            </Array>
          </mxGeometry>
        </mxCell>
        <mxCell id="JSYNmfH88HEd9jmJwd5Y-8" value="Отслеживание инфраструктуры компании&lt;br&gt;" style="rounded=0;whiteSpace=wrap;html=1;fontSize=17;" vertex="1" parent="1">
          <mxGeometry x="328.75" y="180" width="180" height="60" as="geometry" />
        </mxCell>
        <mxCell id="JSYNmfH88HEd9jmJwd5Y-19" style="edgeStyle=orthogonalEdgeStyle;rounded=0;orthogonalLoop=1;jettySize=auto;html=1;fontSize=17;" edge="1" parent="1" source="JSYNmfH88HEd9jmJwd5Y-9" target="JSYNmfH88HEd9jmJwd5Y-10">
          <mxGeometry relative="1" as="geometry" />
        </mxCell>
        <mxCell id="JSYNmfH88HEd9jmJwd5Y-20" style="edgeStyle=orthogonalEdgeStyle;rounded=0;orthogonalLoop=1;jettySize=auto;html=1;entryX=0.5;entryY=0;entryDx=0;entryDy=0;entryPerimeter=0;fontSize=17;" edge="1" parent="1" source="JSYNmfH88HEd9jmJwd5Y-9" target="JSYNmfH88HEd9jmJwd5Y-12">
          <mxGeometry relative="1" as="geometry" />
        </mxCell>
        <mxCell id="JSYNmfH88HEd9jmJwd5Y-21" style="edgeStyle=orthogonalEdgeStyle;rounded=0;orthogonalLoop=1;jettySize=auto;html=1;fontSize=17;" edge="1" parent="1" source="JSYNmfH88HEd9jmJwd5Y-9" target="JSYNmfH88HEd9jmJwd5Y-11">
          <mxGeometry relative="1" as="geometry" />
        </mxCell>
        <mxCell id="JSYNmfH88HEd9jmJwd5Y-26" style="edgeStyle=orthogonalEdgeStyle;rounded=0;orthogonalLoop=1;jettySize=auto;html=1;entryX=0;entryY=0.3333333333333333;entryDx=0;entryDy=0;entryPerimeter=0;fontSize=17;" edge="1" parent="1" source="JSYNmfH88HEd9jmJwd5Y-9" target="JSYNmfH88HEd9jmJwd5Y-23">
          <mxGeometry relative="1" as="geometry" />
        </mxCell>
        <mxCell id="JSYNmfH88HEd9jmJwd5Y-30" style="edgeStyle=orthogonalEdgeStyle;rounded=0;orthogonalLoop=1;jettySize=auto;html=1;fontSize=17;" edge="1" parent="1" source="JSYNmfH88HEd9jmJwd5Y-9" target="JSYNmfH88HEd9jmJwd5Y-29">
          <mxGeometry relative="1" as="geometry" />
        </mxCell>
        <mxCell id="JSYNmfH88HEd9jmJwd5Y-9" value="Сервис используется" style="ellipse;whiteSpace=wrap;html=1;fontSize=17;" vertex="1" parent="1">
          <mxGeometry x="305" y="280" width="120" height="80" as="geometry" />
        </mxCell>
        <mxCell id="JSYNmfH88HEd9jmJwd5Y-10" value="Инфраструктурна команда&lt;br&gt;" style="shape=umlActor;verticalLabelPosition=bottom;verticalAlign=top;html=1;outlineConnect=0;fontSize=17;" vertex="1" parent="1">
          <mxGeometry x="390" y="430" width="30" height="60" as="geometry" />
        </mxCell>
        <mxCell id="JSYNmfH88HEd9jmJwd5Y-11" value="Служба тех. поддержки&lt;br&gt;" style="shape=umlActor;verticalLabelPosition=bottom;verticalAlign=top;html=1;outlineConnect=0;fontSize=17;" vertex="1" parent="1">
          <mxGeometry x="110" y="420" width="30" height="60" as="geometry" />
        </mxCell>
        <mxCell id="JSYNmfH88HEd9jmJwd5Y-12" value="Инженеры" style="shape=umlActor;verticalLabelPosition=bottom;verticalAlign=top;html=1;outlineConnect=0;fontSize=17;" vertex="1" parent="1">
          <mxGeometry x="620" y="420" width="30" height="60" as="geometry" />
        </mxCell>
        <mxCell id="JSYNmfH88HEd9jmJwd5Y-23" value="Бухгалтеры" style="shape=umlActor;verticalLabelPosition=bottom;verticalAlign=top;html=1;outlineConnect=0;fontSize=17;" vertex="1" parent="1">
          <mxGeometry x="230" y="380" width="30" height="60" as="geometry" />
        </mxCell>
        <mxCell id="JSYNmfH88HEd9jmJwd5Y-29" value="Отдел закупок" style="shape=umlActor;verticalLabelPosition=bottom;verticalAlign=top;html=1;outlineConnect=0;fontSize=17;" vertex="1" parent="1">
          <mxGeometry x="500" y="380" width="30" height="60" as="geometry" />
        </mxCell>
        <mxCell id="JSYNmfH88HEd9jmJwd5Y-34" style="edgeStyle=orthogonalEdgeStyle;rounded=0;orthogonalLoop=1;jettySize=auto;html=1;fontSize=17;" edge="1" parent="1" source="JSYNmfH88HEd9jmJwd5Y-33" target="JSYNmfH88HEd9jmJwd5Y-35">
          <mxGeometry relative="1" as="geometry">
            <mxPoint x="370" y="660" as="targetPoint" />
          </mxGeometry>
        </mxCell>
        <mxCell id="JSYNmfH88HEd9jmJwd5Y-36" style="edgeStyle=orthogonalEdgeStyle;rounded=0;orthogonalLoop=1;jettySize=auto;html=1;fontSize=17;" edge="1" parent="1" source="JSYNmfH88HEd9jmJwd5Y-33" target="JSYNmfH88HEd9jmJwd5Y-40">
          <mxGeometry relative="1" as="geometry">
            <mxPoint x="290" y="660" as="targetPoint" />
          </mxGeometry>
        </mxCell>
        <mxCell id="JSYNmfH88HEd9jmJwd5Y-41" style="edgeStyle=orthogonalEdgeStyle;rounded=0;orthogonalLoop=1;jettySize=auto;html=1;fontSize=17;entryX=0.5;entryY=0;entryDx=0;entryDy=0;entryPerimeter=0;" edge="1" parent="1" source="JSYNmfH88HEd9jmJwd5Y-33" target="JSYNmfH88HEd9jmJwd5Y-42">
          <mxGeometry relative="1" as="geometry">
            <mxPoint x="240" y="760" as="targetPoint" />
          </mxGeometry>
        </mxCell>
        <mxCell id="JSYNmfH88HEd9jmJwd5Y-33" value="&lt;font style=&quot;font-size: 17px;&quot;&gt;Command Service&lt;br style=&quot;&quot;&gt;&lt;/font&gt;" style="whiteSpace=wrap;html=1;aspect=fixed;" vertex="1" parent="1">
          <mxGeometry x="60" y="550" width="115" height="115" as="geometry" />
        </mxCell>
        <mxCell id="JSYNmfH88HEd9jmJwd5Y-35" value="Расширение командой строки" style="rounded=0;whiteSpace=wrap;html=1;fontSize=17;" vertex="1" parent="1">
          <mxGeometry x="310" y="560" width="120" height="60" as="geometry" />
        </mxCell>
        <mxCell id="JSYNmfH88HEd9jmJwd5Y-40" value="Помощь в автоматизации процессов&lt;br&gt;" style="rounded=0;whiteSpace=wrap;html=1;fontSize=17;" vertex="1" parent="1">
          <mxGeometry x="340" y="640" width="120" height="60" as="geometry" />
        </mxCell>
        <mxCell id="JSYNmfH88HEd9jmJwd5Y-42" value="Разарабтывается командой технической поддержки&lt;br&gt;" style="rounded=0;whiteSpace=wrap;html=1;fontSize=17;" vertex="1" parent="1">
          <mxGeometry x="135" y="710" width="220" height="60" as="geometry" />
        </mxCell>
        <mxCell id="JSYNmfH88HEd9jmJwd5Y-46" style="edgeStyle=orthogonalEdgeStyle;rounded=0;orthogonalLoop=1;jettySize=auto;html=1;entryX=0.5;entryY=0;entryDx=0;entryDy=0;entryPerimeter=0;fontSize=17;" edge="1" parent="1" source="JSYNmfH88HEd9jmJwd5Y-43" target="JSYNmfH88HEd9jmJwd5Y-45">
          <mxGeometry relative="1" as="geometry" />
        </mxCell>
        <mxCell id="JSYNmfH88HEd9jmJwd5Y-49" style="edgeStyle=orthogonalEdgeStyle;rounded=0;orthogonalLoop=1;jettySize=auto;html=1;entryX=0.5;entryY=0.5;entryDx=0;entryDy=0;entryPerimeter=0;fontSize=17;" edge="1" parent="1" source="JSYNmfH88HEd9jmJwd5Y-43" target="JSYNmfH88HEd9jmJwd5Y-47">
          <mxGeometry relative="1" as="geometry" />
        </mxCell>
        <mxCell id="JSYNmfH88HEd9jmJwd5Y-50" style="edgeStyle=orthogonalEdgeStyle;rounded=0;orthogonalLoop=1;jettySize=auto;html=1;fontSize=17;" edge="1" parent="1" source="JSYNmfH88HEd9jmJwd5Y-43" target="JSYNmfH88HEd9jmJwd5Y-48">
          <mxGeometry relative="1" as="geometry" />
        </mxCell>
        <mxCell id="JSYNmfH88HEd9jmJwd5Y-43" value="Сервис используется" style="ellipse;whiteSpace=wrap;html=1;fontSize=17;" vertex="1" parent="1">
          <mxGeometry x="340" y="770" width="120" height="80" as="geometry" />
        </mxCell>
        <mxCell id="JSYNmfH88HEd9jmJwd5Y-45" value="Служба тех. поддержки&lt;br&gt;" style="shape=umlActor;verticalLabelPosition=bottom;verticalAlign=top;html=1;outlineConnect=0;fontSize=17;" vertex="1" parent="1">
          <mxGeometry x="190" y="860" width="30" height="60" as="geometry" />
        </mxCell>
        <mxCell id="JSYNmfH88HEd9jmJwd5Y-47" value="Инфраструктурна команда&lt;br&gt;" style="shape=umlActor;verticalLabelPosition=bottom;verticalAlign=top;html=1;outlineConnect=0;fontSize=17;" vertex="1" parent="1">
          <mxGeometry x="420" y="910" width="30" height="60" as="geometry" />
        </mxCell>
        <mxCell id="JSYNmfH88HEd9jmJwd5Y-48" value="Инженеры" style="shape=umlActor;verticalLabelPosition=bottom;verticalAlign=top;html=1;outlineConnect=0;fontSize=17;" vertex="1" parent="1">
          <mxGeometry x="610" y="860" width="30" height="60" as="geometry" />
        </mxCell>
        <mxCell id="JSYNmfH88HEd9jmJwd5Y-52" value="" style="rounded=0;whiteSpace=wrap;html=1;fontSize=17;" vertex="1" parent="1">
          <mxGeometry x="330" y="1110" width="120" height="60" as="geometry" />
        </mxCell>
        <mxCell id="JSYNmfH88HEd9jmJwd5Y-53" value="Сервис платформа" style="rounded=0;whiteSpace=wrap;html=1;fontSize=17;" vertex="1" parent="1">
          <mxGeometry x="290" y="1090" width="160" height="80" as="geometry" />
        </mxCell>
        <mxCell id="JSYNmfH88HEd9jmJwd5Y-54" value="Postgres&lt;br&gt;" style="shape=cylinder3;whiteSpace=wrap;html=1;boundedLbl=1;backgroundOutline=1;size=15;fontSize=17;" vertex="1" parent="1">
          <mxGeometry x="470" y="1090" width="70" height="80" as="geometry" />
        </mxCell>
        <mxCell id="JSYNmfH88HEd9jmJwd5Y-77" style="edgeStyle=orthogonalEdgeStyle;rounded=0;orthogonalLoop=1;jettySize=auto;html=1;fontFamily=Helvetica;fontSize=17;fontColor=default;" edge="1" parent="1" source="JSYNmfH88HEd9jmJwd5Y-57" target="JSYNmfH88HEd9jmJwd5Y-53">
          <mxGeometry relative="1" as="geometry" />
        </mxCell>
        <mxCell id="JSYNmfH88HEd9jmJwd5Y-57" value="RestApi" style="rounded=0;whiteSpace=wrap;html=1;fontSize=17;fillColor=#e1d5e7;strokeColor=#9673a6;" vertex="1" parent="1">
          <mxGeometry x="100" y="1122.5" width="120" height="20" as="geometry" />
        </mxCell>
        <mxCell id="JSYNmfH88HEd9jmJwd5Y-63" value="&lt;span style=&quot;&quot;&gt;API ШЛЮЗ&lt;/span&gt;" style="rounded=0;whiteSpace=wrap;html=1;dashed=1;dashPattern=8 8;labelBackgroundColor=#FFFFFF;strokeColor=default;strokeWidth=2;fontFamily=Helvetica;fontSize=17;fontColor=default;fillColor=default;opacity=20;" vertex="1" parent="1">
          <mxGeometry x="5" y="1250" width="120" height="60" as="geometry" />
        </mxCell>
        <mxCell id="JSYNmfH88HEd9jmJwd5Y-64" value="" style="endArrow=classic;html=1;rounded=0;fontFamily=Helvetica;fontSize=17;fontColor=default;" edge="1" parent="1" target="JSYNmfH88HEd9jmJwd5Y-63">
          <mxGeometry width="50" height="50" relative="1" as="geometry">
            <mxPoint x="-70" y="1280" as="sourcePoint" />
            <mxPoint x="-40" y="1260" as="targetPoint" />
          </mxGeometry>
        </mxCell>
        <mxCell id="JSYNmfH88HEd9jmJwd5Y-67" value="" style="endArrow=classic;html=1;rounded=0;fontFamily=Helvetica;fontSize=17;fontColor=default;exitX=1;exitY=0.25;exitDx=0;exitDy=0;" edge="1" parent="1" source="JSYNmfH88HEd9jmJwd5Y-63" target="JSYNmfH88HEd9jmJwd5Y-57">
          <mxGeometry width="50" height="50" relative="1" as="geometry">
            <mxPoint x="100" y="1300" as="sourcePoint" />
            <mxPoint x="160" y="1240" as="targetPoint" />
          </mxGeometry>
        </mxCell>
        <mxCell id="JSYNmfH88HEd9jmJwd5Y-68" value="" style="rounded=1;whiteSpace=wrap;html=1;labelBackgroundColor=#0000FF;fontSize=17;opacity=20;dashed=1;dashPattern=8 8;strokeWidth=3;strokeColor=#FF0080;" vertex="1" parent="1">
          <mxGeometry x="152.5" y="1310" width="535" height="195" as="geometry" />
        </mxCell>
        <mxCell id="JSYNmfH88HEd9jmJwd5Y-69" value="Платформа &quot;Команды для сервиса&quot;" style="rounded=0;whiteSpace=wrap;html=1;fontSize=17;" vertex="1" parent="1">
          <mxGeometry x="300" y="1360" width="160" height="80" as="geometry" />
        </mxCell>
        <mxCell id="JSYNmfH88HEd9jmJwd5Y-70" value="В памяти" style="shape=cylinder3;whiteSpace=wrap;html=1;boundedLbl=1;backgroundOutline=1;size=15;fontSize=17;" vertex="1" parent="1">
          <mxGeometry x="480" y="1360" width="70" height="80" as="geometry" />
        </mxCell>
        <mxCell id="JSYNmfH88HEd9jmJwd5Y-78" style="edgeStyle=orthogonalEdgeStyle;rounded=0;orthogonalLoop=1;jettySize=auto;html=1;fontFamily=Helvetica;fontSize=17;fontColor=default;" edge="1" parent="1" source="JSYNmfH88HEd9jmJwd5Y-71" target="JSYNmfH88HEd9jmJwd5Y-69">
          <mxGeometry relative="1" as="geometry" />
        </mxCell>
        <mxCell id="JSYNmfH88HEd9jmJwd5Y-71" value="RestApi" style="rounded=0;whiteSpace=wrap;html=1;fontSize=17;fillColor=#e1d5e7;strokeColor=#9673a6;" vertex="1" parent="1">
          <mxGeometry x="100" y="1390" width="120" height="20" as="geometry" />
        </mxCell>
        <mxCell id="JSYNmfH88HEd9jmJwd5Y-72" value="" style="endArrow=classic;html=1;rounded=0;fontFamily=Helvetica;fontSize=17;fontColor=default;entryX=0.25;entryY=0;entryDx=0;entryDy=0;" edge="1" parent="1" source="JSYNmfH88HEd9jmJwd5Y-63" target="JSYNmfH88HEd9jmJwd5Y-71">
          <mxGeometry width="50" height="50" relative="1" as="geometry">
            <mxPoint x="135" y="1275" as="sourcePoint" />
            <mxPoint x="258" y="1170" as="targetPoint" />
          </mxGeometry>
        </mxCell>
        <mxCell id="JSYNmfH88HEd9jmJwd5Y-76" style="edgeStyle=orthogonalEdgeStyle;rounded=0;orthogonalLoop=1;jettySize=auto;html=1;entryX=1;entryY=0.25;entryDx=0;entryDy=0;fontFamily=Helvetica;fontSize=17;fontColor=default;" edge="1" parent="1" source="JSYNmfH88HEd9jmJwd5Y-73" target="JSYNmfH88HEd9jmJwd5Y-71">
          <mxGeometry relative="1" as="geometry" />
        </mxCell>
        <mxCell id="JSYNmfH88HEd9jmJwd5Y-73" value="HTTP" style="rounded=0;whiteSpace=wrap;html=1;fontSize=17;fillColor=#fff2cc;strokeColor=#d6b656;" vertex="1" parent="1">
          <mxGeometry x="220" y="1200" width="60" height="20" as="geometry" />
        </mxCell>
        <mxCell id="JSYNmfH88HEd9jmJwd5Y-84" style="edgeStyle=orthogonalEdgeStyle;rounded=0;orthogonalLoop=1;jettySize=auto;html=1;fontFamily=Helvetica;fontSize=17;fontColor=default;" edge="1" parent="1" source="JSYNmfH88HEd9jmJwd5Y-79" target="JSYNmfH88HEd9jmJwd5Y-83">
          <mxGeometry relative="1" as="geometry" />
        </mxCell>
        <mxCell id="JSYNmfH88HEd9jmJwd5Y-79" value="&lt;span style=&quot;&quot;&gt;RABIT MQ MESSAGE BUS&lt;/span&gt;" style="shape=cylinder3;whiteSpace=wrap;html=1;boundedLbl=1;backgroundOutline=1;size=15;labelBackgroundColor=#FFFFFF;strokeColor=default;strokeWidth=2;fontFamily=Helvetica;fontSize=17;fontColor=default;fillColor=default;opacity=20;rotation=90;horizontal=0;" vertex="1" parent="1">
          <mxGeometry x="480" y="1120" width="50" height="300" as="geometry" />
        </mxCell>
        <mxCell id="JSYNmfH88HEd9jmJwd5Y-81" style="edgeStyle=orthogonalEdgeStyle;rounded=0;orthogonalLoop=1;jettySize=auto;html=1;entryX=0;entryY=0.756;entryDx=0;entryDy=0;entryPerimeter=0;fontFamily=Helvetica;fontSize=17;fontColor=default;" edge="1" parent="1" source="JSYNmfH88HEd9jmJwd5Y-80" target="JSYNmfH88HEd9jmJwd5Y-79">
          <mxGeometry relative="1" as="geometry" />
        </mxCell>
        <mxCell id="JSYNmfH88HEd9jmJwd5Y-80" value="pub." style="rounded=0;whiteSpace=wrap;html=1;dashed=1;dashPattern=8 8;labelBackgroundColor=#FFFFFF;strokeColor=#6c8ebf;strokeWidth=2;fontFamily=Helvetica;fontSize=17;fillColor=#dae8fc;" vertex="1" parent="1">
          <mxGeometry x="376.25" y="1150" width="57.5" height="25" as="geometry" />
        </mxCell>
        <mxCell id="JSYNmfH88HEd9jmJwd5Y-83" value="Sub." style="rounded=0;whiteSpace=wrap;html=1;dashed=1;dashPattern=8 8;labelBackgroundColor=#FFFFFF;strokeColor=#6c8ebf;strokeWidth=2;fontFamily=Helvetica;fontSize=17;fillColor=#dae8fc;" vertex="1" parent="1">
          <mxGeometry x="390" y="1350" width="57.5" height="25" as="geometry" />
        </mxCell>
        <mxCell id="JSYNmfH88HEd9jmJwd5Y-85" value="GRPC" style="rounded=0;whiteSpace=wrap;html=1;dashed=1;dashPattern=8 8;labelBackgroundColor=#FFFFFF;strokeColor=#6c8ebf;strokeWidth=2;fontFamily=Helvetica;fontSize=17;fillColor=#dae8fc;" vertex="1" parent="1">
          <mxGeometry x="305" y="1150" width="57.5" height="25" as="geometry" />
        </mxCell>
        <mxCell id="JSYNmfH88HEd9jmJwd5Y-88" style="edgeStyle=orthogonalEdgeStyle;rounded=0;orthogonalLoop=1;jettySize=auto;html=1;entryX=0;entryY=0.5;entryDx=0;entryDy=0;fontFamily=Helvetica;fontSize=17;fontColor=default;" edge="1" parent="1" source="JSYNmfH88HEd9jmJwd5Y-86" target="JSYNmfH88HEd9jmJwd5Y-85">
          <mxGeometry relative="1" as="geometry" />
        </mxCell>
        <mxCell id="JSYNmfH88HEd9jmJwd5Y-86" value="GRPC" style="rounded=0;whiteSpace=wrap;html=1;dashed=1;dashPattern=8 8;labelBackgroundColor=#FFFFFF;strokeColor=#6c8ebf;strokeWidth=2;fontFamily=Helvetica;fontSize=17;fillColor=#dae8fc;" vertex="1" parent="1">
          <mxGeometry x="305" y="1340" width="57.5" height="25" as="geometry" />
        </mxCell>
        <mxCell id="JSYNmfH88HEd9jmJwd5Y-89" value="Models" style="rounded=0;whiteSpace=wrap;html=1;labelBackgroundColor=none;strokeColor=#6c8ebf;strokeWidth=2;fontFamily=Helvetica;fontSize=17;fillColor=#dae8fc;opacity=90;" vertex="1" parent="1">
          <mxGeometry x="30" y="1820" width="120" height="40" as="geometry" />
        </mxCell>
        <mxCell id="JSYNmfH88HEd9jmJwd5Y-90" value="DbContext" style="rounded=0;whiteSpace=wrap;html=1;labelBackgroundColor=none;strokeColor=#6c8ebf;strokeWidth=2;fontFamily=Helvetica;fontSize=17;fillColor=#dae8fc;opacity=90;" vertex="1" parent="1">
          <mxGeometry x="223.75" y="1820" width="120" height="40" as="geometry" />
        </mxCell>
        <mxCell id="JSYNmfH88HEd9jmJwd5Y-91" value="DbContext" style="rounded=0;whiteSpace=wrap;html=1;labelBackgroundColor=none;strokeColor=#6c8ebf;strokeWidth=2;fontFamily=Helvetica;fontSize=17;fillColor=#dae8fc;opacity=90;" vertex="1" parent="1">
          <mxGeometry x="450" y="1820" width="120" height="40" as="geometry" />
        </mxCell>
        <mxCell id="JSYNmfH88HEd9jmJwd5Y-92" value="Postgres&lt;br&gt;" style="shape=cylinder3;whiteSpace=wrap;html=1;boundedLbl=1;backgroundOutline=1;size=15;fontSize=17;" vertex="1" parent="1">
          <mxGeometry x="475" y="1910" width="70" height="80" as="geometry" />
        </mxCell>
        <mxCell id="JSYNmfH88HEd9jmJwd5Y-93" value="" style="shape=flexArrow;endArrow=classic;html=1;rounded=0;fontFamily=Helvetica;fontSize=17;fontColor=default;" edge="1" parent="1" source="JSYNmfH88HEd9jmJwd5Y-91" target="JSYNmfH88HEd9jmJwd5Y-92">
          <mxGeometry width="50" height="50" relative="1" as="geometry">
            <mxPoint x="500" y="1850" as="sourcePoint" />
            <mxPoint x="550" y="1800" as="targetPoint" />
          </mxGeometry>
        </mxCell>
        <mxCell id="JSYNmfH88HEd9jmJwd5Y-94" value="" style="endArrow=classic;startArrow=classic;html=1;rounded=0;fontFamily=Helvetica;fontSize=17;fontColor=default;entryX=0;entryY=0.5;entryDx=0;entryDy=0;" edge="1" parent="1" source="JSYNmfH88HEd9jmJwd5Y-90" target="JSYNmfH88HEd9jmJwd5Y-91">
          <mxGeometry width="50" height="50" relative="1" as="geometry">
            <mxPoint x="310" y="1980" as="sourcePoint" />
            <mxPoint x="360" y="1930" as="targetPoint" />
          </mxGeometry>
        </mxCell>
        <mxCell id="JSYNmfH88HEd9jmJwd5Y-95" value="DTOS" style="rounded=0;whiteSpace=wrap;html=1;labelBackgroundColor=none;strokeColor=#6c8ebf;strokeWidth=2;fontFamily=Helvetica;fontSize=17;fillColor=#dae8fc;opacity=90;" vertex="1" parent="1">
          <mxGeometry x="30" y="1730" width="120" height="40" as="geometry" />
        </mxCell>
        <mxCell id="JSYNmfH88HEd9jmJwd5Y-96" value="" style="endArrow=classic;startArrow=classic;html=1;rounded=0;fontFamily=Helvetica;fontSize=17;fontColor=default;" edge="1" parent="1" source="JSYNmfH88HEd9jmJwd5Y-89" target="JSYNmfH88HEd9jmJwd5Y-95">
          <mxGeometry width="50" height="50" relative="1" as="geometry">
            <mxPoint x="310" y="1980" as="sourcePoint" />
            <mxPoint x="360" y="1930" as="targetPoint" />
          </mxGeometry>
        </mxCell>
        <mxCell id="JSYNmfH88HEd9jmJwd5Y-97" value="" style="endArrow=classic;startArrow=classic;html=1;rounded=0;fontFamily=Helvetica;fontSize=17;fontColor=default;entryX=0;entryY=0.5;entryDx=0;entryDy=0;" edge="1" parent="1" source="JSYNmfH88HEd9jmJwd5Y-89" target="JSYNmfH88HEd9jmJwd5Y-90">
          <mxGeometry width="50" height="50" relative="1" as="geometry">
            <mxPoint x="310" y="1980" as="sourcePoint" />
            <mxPoint x="360" y="1930" as="targetPoint" />
          </mxGeometry>
        </mxCell>
        <mxCell id="JSYNmfH88HEd9jmJwd5Y-98" value="Repository&lt;br&gt;Read/&lt;br&gt;Write" style="rounded=0;whiteSpace=wrap;html=1;labelBackgroundColor=none;strokeColor=#6c8ebf;strokeWidth=2;fontFamily=Helvetica;fontSize=17;fillColor=#dae8fc;opacity=90;" vertex="1" parent="1">
          <mxGeometry x="450" y="1730" width="120" height="60" as="geometry" />
        </mxCell>
        <mxCell id="JSYNmfH88HEd9jmJwd5Y-99" value="" style="endArrow=classic;startArrow=classic;html=1;rounded=0;fontFamily=Helvetica;fontSize=17;fontColor=default;" edge="1" parent="1" source="JSYNmfH88HEd9jmJwd5Y-91" target="JSYNmfH88HEd9jmJwd5Y-98">
          <mxGeometry width="50" height="50" relative="1" as="geometry">
            <mxPoint x="100" y="1820" as="sourcePoint" />
            <mxPoint x="100" y="1780" as="targetPoint" />
          </mxGeometry>
        </mxCell>
        <mxCell id="JSYNmfH88HEd9jmJwd5Y-101" value="Controller" style="rounded=0;whiteSpace=wrap;html=1;labelBackgroundColor=none;strokeColor=#82b366;strokeWidth=2;fontFamily=Helvetica;fontSize=17;fillColor=#d5e8d4;opacity=90;" vertex="1" parent="1">
          <mxGeometry x="235" y="1620" width="120" height="40" as="geometry" />
        </mxCell>
        <mxCell id="JSYNmfH88HEd9jmJwd5Y-102" value="" style="endArrow=classic;startArrow=classic;html=1;rounded=0;fontFamily=Helvetica;fontSize=17;fontColor=default;entryX=0;entryY=0.5;entryDx=0;entryDy=0;" edge="1" parent="1" source="JSYNmfH88HEd9jmJwd5Y-101" target="JSYNmfH88HEd9jmJwd5Y-98">
          <mxGeometry width="50" height="50" relative="1" as="geometry">
            <mxPoint x="360" y="1710" as="sourcePoint" />
            <mxPoint x="410" y="1660" as="targetPoint" />
            <Array as="points">
              <mxPoint x="430" y="1640" />
            </Array>
          </mxGeometry>
        </mxCell>
        <mxCell id="JSYNmfH88HEd9jmJwd5Y-103" value="" style="endArrow=classic;html=1;rounded=0;fontFamily=Helvetica;fontSize=17;fontColor=default;entryX=0;entryY=0.5;entryDx=0;entryDy=0;" edge="1" parent="1" target="JSYNmfH88HEd9jmJwd5Y-101">
          <mxGeometry width="50" height="50" relative="1" as="geometry">
            <mxPoint x="60" y="1640" as="sourcePoint" />
            <mxPoint x="410" y="1660" as="targetPoint" />
          </mxGeometry>
        </mxCell>
        <mxCell id="JSYNmfH88HEd9jmJwd5Y-104" value="HttpRequest" style="edgeLabel;html=1;align=center;verticalAlign=middle;resizable=0;points=[];fontSize=17;fontFamily=Helvetica;fontColor=default;" vertex="1" connectable="0" parent="JSYNmfH88HEd9jmJwd5Y-103">
          <mxGeometry x="-0.2381" y="-1" relative="1" as="geometry">
            <mxPoint x="5" y="-21" as="offset" />
          </mxGeometry>
        </mxCell>
        <mxCell id="JSYNmfH88HEd9jmJwd5Y-105" value="" style="endArrow=classic;html=1;rounded=0;fontFamily=Helvetica;fontSize=17;fontColor=default;exitX=0;exitY=1;exitDx=0;exitDy=0;dashed=1;dashPattern=12 12;" edge="1" parent="1" source="JSYNmfH88HEd9jmJwd5Y-101">
          <mxGeometry width="50" height="50" relative="1" as="geometry">
            <mxPoint x="360" y="1710" as="sourcePoint" />
            <mxPoint x="60" y="1660" as="targetPoint" />
          </mxGeometry>
        </mxCell>
        <mxCell id="JSYNmfH88HEd9jmJwd5Y-106" value="HttpResponse" style="text;html=1;align=center;verticalAlign=middle;resizable=0;points=[];autosize=1;strokeColor=none;fillColor=none;fontSize=17;fontFamily=Helvetica;fontColor=default;" vertex="1" parent="1">
          <mxGeometry x="90" y="1660" width="130" height="30" as="geometry" />
        </mxCell>
      </root>
    </mxGraphModel>
  </diagram>
</mxfile>
